solid HanoiBase
facet normal 0.0 0.0 1.0
  outer loop
    vertex 145.0 0.0 5.0
    vertex 72.5 24.525663829575166 5.0
    vertex 72.5 0.0 5.0
  endloop
endfacet
facet normal 0.0 0.0 1.0
  outer loop
    vertex 72.5 24.525663829575166 5.0
    vertex 145.0 0.0 5.0
    vertex 72.8946502380293 24.526071421566513 5.0
  endloop
endfacet
facet normal 0.0 0.0 1.0
  outer loop
    vertex 72.8946502380293 24.526071421566513 5.0
    vertex 145.0 0.0 5.0
    vertex 73.65091221213687 24.729548578308183 5.0
  endloop
endfacet
facet normal 0.0 0.0 1.0
  outer loop
    vertex 73.65091221213687 24.729548578308183 5.0
    vertex 145.0 0.0 5.0
    vertex 74.32874142095969 25.121827421050703 5.0
  endloop
endfacet
facet normal 0.0 0.0 1.0
  outer loop
    vertex 74.32874142095969 25.121827421050703 5.0
    vertex 145.0 0.0 5.0
    vertex 74.88194492408219 25.676174794932606 5.0
  endloop
endfacet
facet normal 0.0 0.0 1.0
  outer loop
    vertex 74.88194492408219 25.676174794932606 5.0
    vertex 145.0 0.0 5.0
    vertex 75.27282281697859 26.354812842526194 5.0
  endloop
endfacet
facet normal 0.0 0.0 1.0
  outer loop
    vertex 75.27282281697859 26.354812842526194 5.0
    vertex 145.0 0.0 5.0
    vertex 75.47473741720427 27.111493502390367 5.0
  endloop
endfacet
facet normal 0.0 0.0 1.0
  outer loop
    vertex 75.47473741720427 27.111493502390367 5.0
    vertex 145.0 0.0 5.0
    vertex 115.37867965644037 25.378679656440358 5.0
  endloop
endfacet
facet normal 0.0 0.0 1.0
  outer loop
    vertex 75.47473741720427 27.111493502390367 5.0
    vertex 115.37867965644037 25.378679656440358 5.0
    vertex 114.90192378864668 25.999999999999996 5.0
  endloop
endfacet
facet normal 0.0 0.0 1.0
  outer loop
    vertex 75.47473741720427 27.111493502390367 5.0
    vertex 114.90192378864668 25.999999999999996 5.0
    vertex 114.6022225211328 26.723542864692437 5.0
  endloop
endfacet
facet normal 0.0 0.0 1.0
  outer loop
    vertex 75.47473741720427 27.111493502390367 5.0
    vertex 114.6022225211328 26.723542864692437 5.0
    vertex 114.50000000000001 27.5 5.0
  endloop
endfacet
facet normal 0.0 0.0 1.0
  outer loop
    vertex 115.37867965644037 25.378679656440358 5.0
    vertex 145.0 0.0 5.0
    vertex 116.00000000000001 24.901923788646684 5.0
  endloop
endfacet
facet normal 0.0 0.0 1.0
  outer loop
    vertex 116.00000000000001 24.901923788646684 5.0
    vertex 145.0 0.0 5.0
    vertex 116.72354286469245 24.602222521132795 5.0
  endloop
endfacet
facet normal 0.0 0.0 1.0
  outer loop
    vertex 116.72354286469245 24.602222521132795 5.0
    vertex 145.0 0.0 5.0
    vertex 117.50000000000001 24.5 5.0
  endloop
endfacet
facet normal 0.0 0.0 1.0
  outer loop
    vertex 117.50000000000001 24.5 5.0
    vertex 145.0 0.0 5.0
    vertex 118.27645713530757 24.602222521132795 5.0
  endloop
endfacet
facet normal 0.0 0.0 1.0
  outer loop
    vertex 118.27645713530757 24.602222521132795 5.0
    vertex 145.0 0.0 5.0
    vertex 119.00000000000001 24.901923788646684 5.0
  endloop
endfacet
facet normal 0.0 0.0 1.0
  outer loop
    vertex 119.00000000000001 24.901923788646684 5.0
    vertex 145.0 0.0 5.0
    vertex 119.62132034355966 25.378679656440358 5.0
  endloop
endfacet
facet normal 0.0 0.0 1.0
  outer loop
    vertex 119.62132034355966 25.378679656440358 5.0
    vertex 145.0 0.0 5.0
    vertex 120.09807621135333 26.000000000000004 5.0
  endloop
endfacet
facet normal 0.0 0.0 1.0
  outer loop
    vertex 120.09807621135333 26.000000000000004 5.0
    vertex 145.0 0.0 5.0
    vertex 120.39777747886721 26.723542864692437 5.0
  endloop
endfacet
facet normal 0.0 0.0 1.0
  outer loop
    vertex 120.39777747886721 26.723542864692437 5.0
    vertex 145.0 0.0 5.0
    vertex 120.5 27.5 5.0
  endloop
endfacet
facet normal 0.0 0.0 1.0
  outer loop
    vertex 120.5 27.5 5.0
    vertex 145.0 0.0 5.0
    vertex 145.0 27.5 5.0
  endloop
endfacet
facet normal 0.0 0.0 1.0
  outer loop
    vertex 114.50000000000001 27.5 5.0
    vertex 75.47433617042483 27.5 5.0
    vertex 75.47473741720427 27.111493502390367 5.0
  endloop
endfacet
facet normal 0.0 0.0 1.0
  outer loop
    vertex 72.88850649760964 30.474737417204263 5.0
    vertex 72.5 55.0 5.0
    vertex 72.5 30.47433617042483 5.0
  endloop
endfacet
facet normal 0.0 0.0 1.0
  outer loop
    vertex 72.5 55.0 5.0
    vertex 72.88850649760964 30.474737417204263 5.0
    vertex 145.0 55.0 5.0
  endloop
endfacet
facet normal 0.0 0.0 1.0
  outer loop
    vertex 145.0 55.0 5.0
    vertex 72.88850649760964 30.474737417204263 5.0
    vertex 73.6451871574738 30.27282281697859 5.0
  endloop
endfacet
facet normal 0.0 0.0 1.0
  outer loop
    vertex 145.0 55.0 5.0
    vertex 73.6451871574738 30.27282281697859 5.0
    vertex 74.3238252050674 29.881944924082184 5.0
  endloop
endfacet
facet normal 0.0 0.0 1.0
  outer loop
    vertex 145.0 55.0 5.0
    vertex 74.3238252050674 29.881944924082184 5.0
    vertex 74.8781725789493 29.328741420959684 5.0
  endloop
endfacet
facet normal 0.0 0.0 1.0
  outer loop
    vertex 145.0 55.0 5.0
    vertex 74.8781725789493 29.328741420959684 5.0
    vertex 75.27045142169182 28.65091221213687 5.0
  endloop
endfacet
facet normal 0.0 0.0 1.0
  outer loop
    vertex 145.0 55.0 5.0
    vertex 75.27045142169182 28.65091221213687 5.0
    vertex 75.47392857843349 27.894650238029286 5.0
  endloop
endfacet
facet normal 0.0 0.0 1.0
  outer loop
    vertex 145.0 55.0 5.0
    vertex 75.47392857843349 27.894650238029286 5.0
    vertex 75.47433617042483 27.5 5.0
  endloop
endfacet
facet normal 0.0 0.0 1.0
  outer loop
    vertex 145.0 55.0 5.0
    vertex 75.47433617042483 27.5 5.0
    vertex 115.37867965644037 29.621320343559642 5.0
  endloop
endfacet
facet normal 0.0 0.0 1.0
  outer loop
    vertex 115.37867965644037 29.621320343559642 5.0
    vertex 75.47433617042483 27.5 5.0
    vertex 114.90192378864668 28.999999999999996 5.0
  endloop
endfacet
facet normal 0.0 0.0 1.0
  outer loop
    vertex 114.90192378864668 28.999999999999996 5.0
    vertex 75.47433617042483 27.5 5.0
    vertex 114.6022225211328 28.276457135307563 5.0
  endloop
endfacet
facet normal 0.0 0.0 1.0
  outer loop
    vertex 114.6022225211328 28.276457135307563 5.0
    vertex 75.47433617042483 27.5 5.0
    vertex 114.50000000000001 27.5 5.0
  endloop
endfacet
facet normal 0.0 0.0 1.0
  outer loop
    vertex 145.0 55.0 5.0
    vertex 115.37867965644037 29.621320343559642 5.0
    vertex 116.00000000000001 30.09807621135332 5.0
  endloop
endfacet
facet normal 0.0 0.0 1.0
  outer loop
    vertex 145.0 55.0 5.0
    vertex 116.00000000000001 30.09807621135332 5.0
    vertex 116.72354286469245 30.397777478867205 5.0
  endloop
endfacet
facet normal 0.0 0.0 1.0
  outer loop
    vertex 145.0 55.0 5.0
    vertex 116.72354286469245 30.397777478867205 5.0
    vertex 117.50000000000001 30.5 5.0
  endloop
endfacet
facet normal 0.0 0.0 1.0
  outer loop
    vertex 145.0 55.0 5.0
    vertex 117.50000000000001 30.5 5.0
    vertex 118.27645713530757 30.397777478867205 5.0
  endloop
endfacet
facet normal 0.0 0.0 1.0
  outer loop
    vertex 145.0 55.0 5.0
    vertex 118.27645713530757 30.397777478867205 5.0
    vertex 119.00000000000001 30.09807621135332 5.0
  endloop
endfacet
facet normal 0.0 0.0 1.0
  outer loop
    vertex 145.0 55.0 5.0
    vertex 119.00000000000001 30.09807621135332 5.0
    vertex 119.62132034355966 29.621320343559642 5.0
  endloop
endfacet
facet normal 0.0 0.0 1.0
  outer loop
    vertex 145.0 55.0 5.0
    vertex 119.62132034355966 29.621320343559642 5.0
    vertex 120.09807621135333 29.000000000000004 5.0
  endloop
endfacet
facet normal 0.0 0.0 1.0
  outer loop
    vertex 145.0 55.0 5.0
    vertex 120.09807621135333 29.000000000000004 5.0
    vertex 120.39777747886721 28.276457135307563 5.0
  endloop
endfacet
facet normal 0.0 0.0 1.0
  outer loop
    vertex 145.0 55.0 5.0
    vertex 120.39777747886721 28.276457135307563 5.0
    vertex 120.5 27.5 5.0
  endloop
endfacet
facet normal 0.0 0.0 1.0
  outer loop
    vertex 145.0 55.0 5.0
    vertex 120.5 27.5 5.0
    vertex 145.0 27.5 5.0
  endloop
endfacet
facet normal 1.0 0.0 0.0
  outer loop
    vertex 145.0 55.0 0.0
    vertex 145.0 0.0 5.0
    vertex 145.0 0.0 0.0
  endloop
endfacet
facet normal 1.0 0.0 0.0
  outer loop
    vertex 145.0 0.0 5.0
    vertex 145.0 55.0 0.0
    vertex 145.0 27.5 5.0
  endloop
endfacet
facet normal 1.0 0.0 0.0
  outer loop
    vertex 145.0 27.5 5.0
    vertex 145.0 55.0 0.0
    vertex 145.0 55.0 5.0
  endloop
endfacet
facet normal 0.0 0.0 -1.0
  outer loop
    vertex 145.0 55.0 0.0
    vertex 0.0 0.0 0.0
    vertex 0.0 55.0 0.0
  endloop
endfacet
facet normal 0.0 0.0 -1.0
  outer loop
    vertex 0.0 0.0 0.0
    vertex 145.0 55.0 0.0
    vertex 145.0 0.0 0.0
  endloop
endfacet
facet normal -0.0 -1.0 -0.0
  outer loop
    vertex 145.0 0.0 5.0
    vertex 0.0 0.0 0.0
    vertex 145.0 0.0 0.0
  endloop
endfacet
facet normal -0.0 -1.0 -0.0
  outer loop
    vertex 0.0 0.0 0.0
    vertex 145.0 0.0 5.0
    vertex 0.0 0.0 5.0
  endloop
endfacet
facet normal -0.0 -1.0 -0.0
  outer loop
    vertex 0.0 0.0 5.0
    vertex 145.0 0.0 5.0
    vertex 72.5 0.0 5.0
  endloop
endfacet
facet normal 0.0 0.0 1.0
  outer loop
    vertex 69.52566382957517 27.5 5.0
    vertex 69.52526258279573 27.888506497609633 5.0
    vertex 30.5 27.5 5.0
  endloop
endfacet
facet normal 0.0 0.0 1.0
  outer loop
    vertex 24.5 27.5 5.0
    vertex 0.0 55.0 5.0
    vertex 0.0 27.5 5.0
  endloop
endfacet
facet normal 0.0 0.0 1.0
  outer loop
    vertex 0.0 55.0 5.0
    vertex 24.5 27.5 5.0
    vertex 24.602222521132795 28.276457135307563 5.0
  endloop
endfacet
facet normal 0.0 0.0 1.0
  outer loop
    vertex 0.0 55.0 5.0
    vertex 24.602222521132795 28.276457135307563 5.0
    vertex 24.901923788646684 28.999999999999996 5.0
  endloop
endfacet
facet normal 0.0 0.0 1.0
  outer loop
    vertex 0.0 55.0 5.0
    vertex 24.901923788646684 28.999999999999996 5.0
    vertex 25.378679656440358 29.621320343559642 5.0
  endloop
endfacet
facet normal 0.0 0.0 1.0
  outer loop
    vertex 0.0 55.0 5.0
    vertex 25.378679656440358 29.621320343559642 5.0
    vertex 25.999999999999996 30.09807621135332 5.0
  endloop
endfacet
facet normal 0.0 0.0 1.0
  outer loop
    vertex 0.0 55.0 5.0
    vertex 25.999999999999996 30.09807621135332 5.0
    vertex 72.5 55.0 5.0
  endloop
endfacet
facet normal 0.0 0.0 1.0
  outer loop
    vertex 72.5 55.0 5.0
    vertex 25.999999999999996 30.09807621135332 5.0
    vertex 26.723542864692437 30.397777478867205 5.0
  endloop
endfacet
facet normal 0.0 0.0 1.0
  outer loop
    vertex 72.5 55.0 5.0
    vertex 26.723542864692437 30.397777478867205 5.0
    vertex 27.5 30.5 5.0
  endloop
endfacet
facet normal 0.0 0.0 1.0
  outer loop
    vertex 72.5 55.0 5.0
    vertex 27.5 30.5 5.0
    vertex 28.276457135307563 30.397777478867205 5.0
  endloop
endfacet
facet normal 0.0 0.0 1.0
  outer loop
    vertex 72.5 55.0 5.0
    vertex 28.276457135307563 30.397777478867205 5.0
    vertex 28.999999999999996 30.09807621135332 5.0
  endloop
endfacet
facet normal 0.0 0.0 1.0
  outer loop
    vertex 72.5 55.0 5.0
    vertex 28.999999999999996 30.09807621135332 5.0
    vertex 29.621320343559642 29.621320343559642 5.0
  endloop
endfacet
facet normal 0.0 0.0 1.0
  outer loop
    vertex 72.5 55.0 5.0
    vertex 29.621320343559642 29.621320343559642 5.0
    vertex 30.09807621135332 29.000000000000004 5.0
  endloop
endfacet
facet normal 0.0 0.0 1.0
  outer loop
    vertex 72.5 55.0 5.0
    vertex 30.09807621135332 29.000000000000004 5.0
    vertex 30.397777478867205 28.276457135307563 5.0
  endloop
endfacet
facet normal 0.0 0.0 1.0
  outer loop
    vertex 72.5 55.0 5.0
    vertex 30.397777478867205 28.276457135307563 5.0
    vertex 30.5 27.5 5.0
  endloop
endfacet
facet normal 0.0 0.0 1.0
  outer loop
    vertex 72.5 55.0 5.0
    vertex 30.5 27.5 5.0
    vertex 69.52526258279573 27.888506497609633 5.0
  endloop
endfacet
facet normal 0.0 0.0 1.0
  outer loop
    vertex 72.5 55.0 5.0
    vertex 69.52526258279573 27.888506497609633 5.0
    vertex 69.72717718302141 28.645187157473806 5.0
  endloop
endfacet
facet normal 0.0 0.0 1.0
  outer loop
    vertex 72.5 55.0 5.0
    vertex 69.72717718302141 28.645187157473806 5.0
    vertex 70.11805507591781 29.323825205067394 5.0
  endloop
endfacet
facet normal 0.0 0.0 1.0
  outer loop
    vertex 72.5 55.0 5.0
    vertex 70.11805507591781 29.323825205067394 5.0
    vertex 70.67125857904031 29.878172578949297 5.0
  endloop
endfacet
facet normal 0.0 0.0 1.0
  outer loop
    vertex 72.5 55.0 5.0
    vertex 70.67125857904031 29.878172578949297 5.0
    vertex 71.34908778786314 30.27045142169182 5.0
  endloop
endfacet
facet normal 0.0 0.0 1.0
  outer loop
    vertex 72.5 55.0 5.0
    vertex 71.34908778786314 30.27045142169182 5.0
    vertex 72.10534976197071 30.473928578433487 5.0
  endloop
endfacet
facet normal 0.0 0.0 1.0
  outer loop
    vertex 72.5 55.0 5.0
    vertex 72.10534976197071 30.473928578433487 5.0
    vertex 72.5 30.47433617042483 5.0
  endloop
endfacet
facet normal 0.0 1.0 0.0
  outer loop
    vertex 0.0 55.0 5.0
    vertex 145.0 55.0 0.0
    vertex 0.0 55.0 0.0
  endloop
endfacet
facet normal 0.0 1.0 0.0
  outer loop
    vertex 145.0 55.0 0.0
    vertex 0.0 55.0 5.0
    vertex 145.0 55.0 5.0
  endloop
endfacet
facet normal 0.0 1.0 0.0
  outer loop
    vertex 145.0 55.0 5.0
    vertex 0.0 55.0 5.0
    vertex 72.5 55.0 5.0
  endloop
endfacet
facet normal -1.0 0.0 0.0
  outer loop
    vertex 0.0 27.5 5.0
    vertex 0.0 0.0 0.0
    vertex 0.0 0.0 5.0
  endloop
endfacet
facet normal -1.0 0.0 0.0
  outer loop
    vertex 0.0 0.0 0.0
    vertex 0.0 27.5 5.0
    vertex 0.0 55.0 0.0
  endloop
endfacet
facet normal -1.0 0.0 0.0
  outer loop
    vertex 0.0 55.0 0.0
    vertex 0.0 27.5 5.0
    vertex 0.0 55.0 5.0
  endloop
endfacet
facet normal 0.0 0.0 1.0
  outer loop
    vertex 72.5 0.0 5.0
    vertex 0.0 27.5 5.0
    vertex 0.0 0.0 5.0
  endloop
endfacet
facet normal 0.0 0.0 1.0
  outer loop
    vertex 0.0 27.5 5.0
    vertex 72.5 0.0 5.0
    vertex 26.000000000000004 24.901923788646684 5.0
  endloop
endfacet
facet normal 0.0 0.0 1.0
  outer loop
    vertex 0.0 27.5 5.0
    vertex 26.000000000000004 24.901923788646684 5.0
    vertex 25.378679656440358 25.378679656440358 5.0
  endloop
endfacet
facet normal 0.0 0.0 1.0
  outer loop
    vertex 0.0 27.5 5.0
    vertex 25.378679656440358 25.378679656440358 5.0
    vertex 24.901923788646684 25.999999999999996 5.0
  endloop
endfacet
facet normal 0.0 0.0 1.0
  outer loop
    vertex 0.0 27.5 5.0
    vertex 24.901923788646684 25.999999999999996 5.0
    vertex 24.602222521132795 26.723542864692437 5.0
  endloop
endfacet
facet normal 0.0 0.0 1.0
  outer loop
    vertex 0.0 27.5 5.0
    vertex 24.602222521132795 26.723542864692437 5.0
    vertex 24.5 27.5 5.0
  endloop
endfacet
facet normal 0.0 0.0 1.0
  outer loop
    vertex 26.000000000000004 24.901923788646684 5.0
    vertex 72.5 0.0 5.0
    vertex 26.723542864692437 24.602222521132795 5.0
  endloop
endfacet
facet normal 0.0 0.0 1.0
  outer loop
    vertex 26.723542864692437 24.602222521132795 5.0
    vertex 72.5 0.0 5.0
    vertex 27.5 24.5 5.0
  endloop
endfacet
facet normal 0.0 0.0 1.0
  outer loop
    vertex 27.5 24.5 5.0
    vertex 72.5 0.0 5.0
    vertex 28.276457135307563 24.602222521132795 5.0
  endloop
endfacet
facet normal 0.0 0.0 1.0
  outer loop
    vertex 28.276457135307563 24.602222521132795 5.0
    vertex 72.5 0.0 5.0
    vertex 29.000000000000004 24.901923788646684 5.0
  endloop
endfacet
facet normal 0.0 0.0 1.0
  outer loop
    vertex 29.000000000000004 24.901923788646684 5.0
    vertex 72.5 0.0 5.0
    vertex 29.621320343559642 25.378679656440358 5.0
  endloop
endfacet
facet normal 0.0 0.0 1.0
  outer loop
    vertex 29.621320343559642 25.378679656440358 5.0
    vertex 72.5 0.0 5.0
    vertex 30.09807621135332 26.000000000000004 5.0
  endloop
endfacet
facet normal 0.0 0.0 1.0
  outer loop
    vertex 30.09807621135332 26.000000000000004 5.0
    vertex 72.5 0.0 5.0
    vertex 30.397777478867205 26.723542864692437 5.0
  endloop
endfacet
facet normal 0.0 0.0 1.0
  outer loop
    vertex 30.397777478867205 26.723542864692437 5.0
    vertex 72.5 0.0 5.0
    vertex 30.5 27.5 5.0
  endloop
endfacet
facet normal 0.0 0.0 1.0
  outer loop
    vertex 30.5 27.5 5.0
    vertex 72.5 0.0 5.0
    vertex 69.52607142156651 27.105349761970714 5.0
  endloop
endfacet
facet normal 0.0 0.0 1.0
  outer loop
    vertex 30.5 27.5 5.0
    vertex 69.52607142156651 27.105349761970714 5.0
    vertex 69.52566382957517 27.5 5.0
  endloop
endfacet
facet normal 0.0 0.0 1.0
  outer loop
    vertex 69.52607142156651 27.105349761970714 5.0
    vertex 72.5 0.0 5.0
    vertex 69.72954857830818 26.349087787863134 5.0
  endloop
endfacet
facet normal 0.0 0.0 1.0
  outer loop
    vertex 69.72954857830818 26.349087787863134 5.0
    vertex 72.5 0.0 5.0
    vertex 70.12182742105071 25.671258579040316 5.0
  endloop
endfacet
facet normal 0.0 0.0 1.0
  outer loop
    vertex 70.12182742105071 25.671258579040316 5.0
    vertex 72.5 0.0 5.0
    vertex 70.6761747949326 25.118055075917816 5.0
  endloop
endfacet
facet normal 0.0 0.0 1.0
  outer loop
    vertex 70.6761747949326 25.118055075917816 5.0
    vertex 72.5 0.0 5.0
    vertex 71.3548128425262 24.727177183021414 5.0
  endloop
endfacet
facet normal 0.0 0.0 1.0
  outer loop
    vertex 71.3548128425262 24.727177183021414 5.0
    vertex 72.5 0.0 5.0
    vertex 72.11149350239037 24.525262582795737 5.0
  endloop
endfacet
facet normal 0.0 0.0 1.0
  outer loop
    vertex 72.11149350239037 24.525262582795737 5.0
    vertex 72.5 0.0 5.0
    vertex 72.5 24.525663829575166 5.0
  endloop
endfacet
facet normal 0.0 0.0 1.0
  outer loop
    vertex 69.52566382957517 27.5 70.0
    vertex 69.72717718302141 28.645187157473806 70.0
    vertex 69.52526258279573 27.888506497609633 70.0
  endloop
endfacet
facet normal 0.0 0.0 1.0
  outer loop
    vertex 69.72717718302141 28.645187157473806 70.0
    vertex 69.52566382957517 27.5 70.0
    vertex 69.52607142156651 27.105349761970714 70.0
  endloop
endfacet
facet normal 0.0 0.0 1.0
  outer loop
    vertex 69.72717718302141 28.645187157473806 70.0
    vertex 69.52607142156651 27.105349761970714 70.0
    vertex 69.72954857830818 26.349087787863134 70.0
  endloop
endfacet
facet normal 0.0 0.0 1.0
  outer loop
    vertex 69.72717718302141 28.645187157473806 70.0
    vertex 69.72954857830818 26.349087787863134 70.0
    vertex 70.11805507591781 29.323825205067394 70.0
  endloop
endfacet
facet normal 0.0 0.0 1.0
  outer loop
    vertex 70.11805507591781 29.323825205067394 70.0
    vertex 69.72954857830818 26.349087787863134 70.0
    vertex 70.12182742105071 25.671258579040316 70.0
  endloop
endfacet
facet normal 0.0 0.0 1.0
  outer loop
    vertex 70.11805507591781 29.323825205067394 70.0
    vertex 70.12182742105071 25.671258579040316 70.0
    vertex 70.67125857904031 29.878172578949297 70.0
  endloop
endfacet
facet normal 0.0 0.0 1.0
  outer loop
    vertex 70.67125857904031 29.878172578949297 70.0
    vertex 70.12182742105071 25.671258579040316 70.0
    vertex 70.6761747949326 25.118055075917816 70.0
  endloop
endfacet
facet normal 0.0 0.0 1.0
  outer loop
    vertex 70.67125857904031 29.878172578949297 70.0
    vertex 70.6761747949326 25.118055075917816 70.0
    vertex 71.34908778786314 30.27045142169182 70.0
  endloop
endfacet
facet normal 0.0 0.0 1.0
  outer loop
    vertex 71.34908778786314 30.27045142169182 70.0
    vertex 70.6761747949326 25.118055075917816 70.0
    vertex 71.3548128425262 24.727177183021414 70.0
  endloop
endfacet
facet normal 0.0 0.0 1.0
  outer loop
    vertex 71.34908778786314 30.27045142169182 70.0
    vertex 71.3548128425262 24.727177183021414 70.0
    vertex 72.10534976197071 30.473928578433487 70.0
  endloop
endfacet
facet normal 0.0 0.0 1.0
  outer loop
    vertex 72.10534976197071 30.473928578433487 70.0
    vertex 71.3548128425262 24.727177183021414 70.0
    vertex 72.11149350239037 24.525262582795737 70.0
  endloop
endfacet
facet normal 0.0 0.0 1.0
  outer loop
    vertex 72.10534976197071 30.473928578433487 70.0
    vertex 72.11149350239037 24.525262582795737 70.0
    vertex 72.5 30.47433617042483 70.0
  endloop
endfacet
facet normal 0.0 0.0 1.0
  outer loop
    vertex 72.5 30.47433617042483 70.0
    vertex 72.11149350239037 24.525262582795737 70.0
    vertex 72.5 24.525663829575166 70.0
  endloop
endfacet
facet normal 0.0 0.0 1.0
  outer loop
    vertex 72.5 30.47433617042483 70.0
    vertex 72.5 24.525663829575166 70.0
    vertex 72.8946502380293 24.526071421566513 70.0
  endloop
endfacet
facet normal 0.0 0.0 1.0
  outer loop
    vertex 72.5 30.47433617042483 70.0
    vertex 72.8946502380293 24.526071421566513 70.0
    vertex 72.88850649760964 30.474737417204263 70.0
  endloop
endfacet
facet normal 0.0 0.0 1.0
  outer loop
    vertex 72.88850649760964 30.474737417204263 70.0
    vertex 72.8946502380293 24.526071421566513 70.0
    vertex 73.6451871574738 30.27282281697859 70.0
  endloop
endfacet
facet normal 0.0 0.0 1.0
  outer loop
    vertex 73.6451871574738 30.27282281697859 70.0
    vertex 72.8946502380293 24.526071421566513 70.0
    vertex 73.65091221213687 24.729548578308183 70.0
  endloop
endfacet
facet normal 0.0 0.0 1.0
  outer loop
    vertex 73.6451871574738 30.27282281697859 70.0
    vertex 73.65091221213687 24.729548578308183 70.0
    vertex 74.3238252050674 29.881944924082184 70.0
  endloop
endfacet
facet normal 0.0 0.0 1.0
  outer loop
    vertex 74.3238252050674 29.881944924082184 70.0
    vertex 73.65091221213687 24.729548578308183 70.0
    vertex 74.32874142095969 25.121827421050703 70.0
  endloop
endfacet
facet normal 0.0 0.0 1.0
  outer loop
    vertex 74.3238252050674 29.881944924082184 70.0
    vertex 74.32874142095969 25.121827421050703 70.0
    vertex 74.8781725789493 29.328741420959684 70.0
  endloop
endfacet
facet normal 0.0 0.0 1.0
  outer loop
    vertex 74.8781725789493 29.328741420959684 70.0
    vertex 74.32874142095969 25.121827421050703 70.0
    vertex 74.88194492408219 25.676174794932606 70.0
  endloop
endfacet
facet normal 0.0 0.0 1.0
  outer loop
    vertex 74.8781725789493 29.328741420959684 70.0
    vertex 74.88194492408219 25.676174794932606 70.0
    vertex 75.27045142169182 28.65091221213687 70.0
  endloop
endfacet
facet normal 0.0 0.0 1.0
  outer loop
    vertex 75.27045142169182 28.65091221213687 70.0
    vertex 74.88194492408219 25.676174794932606 70.0
    vertex 75.27282281697859 26.354812842526194 70.0
  endloop
endfacet
facet normal 0.0 0.0 1.0
  outer loop
    vertex 75.27045142169182 28.65091221213687 70.0
    vertex 75.27282281697859 26.354812842526194 70.0
    vertex 75.47392857843349 27.894650238029286 70.0
  endloop
endfacet
facet normal 0.0 0.0 1.0
  outer loop
    vertex 75.47392857843349 27.894650238029286 70.0
    vertex 75.27282281697859 26.354812842526194 70.0
    vertex 75.47473741720427 27.111493502390367 70.0
  endloop
endfacet
facet normal 0.0 0.0 1.0
  outer loop
    vertex 75.47392857843349 27.894650238029286 70.0
    vertex 75.47473741720427 27.111493502390367 70.0
    vertex 75.47433617042483 27.5 70.0
  endloop
endfacet
facet normal 0.0010327924189202945 -0.9999994666697675 0.0
  outer loop
    vertex 72.5 24.525663829575166 70.0
    vertex 72.11149350239037 24.525262582795737 5.0
    vertex 72.5 24.525663829575166 5.0
  endloop
endfacet
facet normal 0.0010327924189202945 -0.9999994666697675 0.0
  outer loop
    vertex 72.11149350239037 24.525262582795737 5.0
    vertex 72.5 24.525663829575166 70.0
    vertex 72.11149350239037 24.525262582795737 70.0
  endloop
endfacet
facet normal 0.001032792418924365 -0.9999994666697675 0.0
  outer loop
    vertex 72.8946502380293 24.526071421566513 70.0
    vertex 72.5 24.525663829575166 5.0
    vertex 72.8946502380293 24.526071421566513 5.0
  endloop
endfacet
facet normal 0.001032792418924365 -0.9999994666697675 0.0
  outer loop
    vertex 72.5 24.525663829575166 5.0
    vertex 72.8946502380293 24.526071421566513 70.0
    vertex 72.5 24.525663829575166 70.0
  endloop
endfacet
facet normal 0.2598165079371368 -0.9656580047839668 0.0
  outer loop
    vertex 73.65091221213687 24.729548578308183 70.0
    vertex 72.8946502380293 24.526071421566513 5.0
    vertex 73.65091221213687 24.729548578308183 5.0
  endloop
endfacet
facet normal 0.2598165079371368 -0.9656580047839668 0.0
  outer loop
    vertex 72.8946502380293 24.526071421566513 5.0
    vertex 73.65091221213687 24.729548578308183 70.0
    vertex 72.8946502380293 24.526071421566513 70.0
  endloop
endfacet
facet normal 0.5008941578065088 -0.8655085456974462 0.0
  outer loop
    vertex 74.32874142095969 25.121827421050703 70.0
    vertex 73.65091221213687 24.729548578308183 5.0
    vertex 74.32874142095969 25.121827421050703 5.0
  endloop
endfacet
facet normal 0.5008941578065088 -0.8655085456974462 0.0
  outer loop
    vertex 73.65091221213687 24.729548578308183 5.0
    vertex 74.32874142095969 25.121827421050703 70.0
    vertex 73.65091221213687 24.729548578308183 70.0
  endloop
endfacet
facet normal 0.7078366985880995 -0.7063761095421476 0.0
  outer loop
    vertex 74.88194492408219 25.676174794932606 5.0
    vertex 74.32874142095969 25.121827421050703 70.0
    vertex 74.32874142095969 25.121827421050703 5.0
  endloop
endfacet
facet normal 0.7078366985880995 -0.7063761095421476 0.0
  outer loop
    vertex 74.32874142095969 25.121827421050703 70.0
    vertex 74.88194492408219 25.676174794932606 5.0
    vertex 74.88194492408219 25.676174794932606 70.0
  endloop
endfacet
facet normal 0.8665413381163719 -0.49910530886325766 0.0
  outer loop
    vertex 75.27282281697859 26.354812842526194 5.0
    vertex 74.88194492408219 25.676174794932606 70.0
    vertex 74.88194492408219 25.676174794932606 5.0
  endloop
endfacet
facet normal 0.8665413381163719 -0.49910530886325766 0.0
  outer loop
    vertex 74.88194492408219 25.676174794932606 70.0
    vertex 75.27282281697859 26.354812842526194 5.0
    vertex 75.27282281697859 26.354812842526194 70.0
  endloop
endfacet
facet normal 0.9661926174792778 -0.2578213061958653 0.0
  outer loop
    vertex 75.47473741720427 27.111493502390367 5.0
    vertex 75.27282281697859 26.354812842526194 70.0
    vertex 75.27282281697859 26.354812842526194 5.0
  endloop
endfacet
facet normal 0.9661926174792778 -0.2578213061958653 0.0
  outer loop
    vertex 75.27282281697859 26.354812842526194 70.0
    vertex 75.47473741720427 27.111493502390367 5.0
    vertex 75.47473741720427 27.111493502390367 70.0
  endloop
endfacet
facet normal 0.9999994666697675 0.001032792418927553 0.0
  outer loop
    vertex 75.47433617042483 27.5 5.0
    vertex 75.47473741720427 27.111493502390367 70.0
    vertex 75.47473741720427 27.111493502390367 5.0
  endloop
endfacet
facet normal 0.9999994666697675 0.001032792418927553 0.0
  outer loop
    vertex 75.47473741720427 27.111493502390367 70.0
    vertex 75.47433617042483 27.5 5.0
    vertex 75.47433617042483 27.5 70.0
  endloop
endfacet
facet normal 0.9999994666697675 0.001032792418938671 0.0
  outer loop
    vertex 75.47392857843349 27.894650238029286 5.0
    vertex 75.47433617042483 27.5 70.0
    vertex 75.47433617042483 27.5 5.0
  endloop
endfacet
facet normal 0.9999994666697675 0.001032792418938671 0.0
  outer loop
    vertex 75.47433617042483 27.5 70.0
    vertex 75.47392857843349 27.894650238029286 5.0
    vertex 75.47392857843349 27.894650238029286 70.0
  endloop
endfacet
facet normal 0.9656580047839692 0.2598165079371283 0.0
  outer loop
    vertex 75.27045142169182 28.65091221213687 5.0
    vertex 75.47392857843349 27.894650238029286 70.0
    vertex 75.47392857843349 27.894650238029286 5.0
  endloop
endfacet
facet normal 0.9656580047839692 0.2598165079371283 0.0
  outer loop
    vertex 75.47392857843349 27.894650238029286 70.0
    vertex 75.27045142169182 28.65091221213687 5.0
    vertex 75.27045142169182 28.65091221213687 70.0
  endloop
endfacet
facet normal -0.9914448613738105 0.13052619222005168 0.0
  outer loop
    vertex 24.602222521132795 28.276457135307563 70.0
    vertex 24.5 27.5 5.0
    vertex 24.5 27.5 70.0
  endloop
endfacet
facet normal -0.9914448613738105 0.13052619222005168 0.0
  outer loop
    vertex 24.5 27.5 5.0
    vertex 24.602222521132795 28.276457135307563 70.0
    vertex 24.602222521132795 28.276457135307563 5.0
  endloop
endfacet
facet normal -0.9914448613738105 -0.13052619222005168 -0.0
  outer loop
    vertex 24.5 27.5 70.0
    vertex 24.602222521132795 26.723542864692437 5.0
    vertex 24.602222521132795 26.723542864692437 70.0
  endloop
endfacet
facet normal -0.9914448613738105 -0.13052619222005168 -0.0
  outer loop
    vertex 24.602222521132795 26.723542864692437 5.0
    vertex 24.5 27.5 70.0
    vertex 24.5 27.5 5.0
  endloop
endfacet
facet normal -0.9238795325112867 -0.38268343236509006 -0.0
  outer loop
    vertex 24.602222521132795 26.723542864692437 70.0
    vertex 24.901923788646684 25.999999999999996 5.0
    vertex 24.901923788646684 25.999999999999996 70.0
  endloop
endfacet
facet normal -0.9238795325112867 -0.38268343236509006 -0.0
  outer loop
    vertex 24.901923788646684 25.999999999999996 5.0
    vertex 24.602222521132795 26.723542864692437 70.0
    vertex 24.602222521132795 26.723542864692437 5.0
  endloop
endfacet
facet normal -0.7933533402912343 -0.608761429008722 -0.0
  outer loop
    vertex 24.901923788646684 25.999999999999996 70.0
    vertex 25.378679656440358 25.378679656440358 5.0
    vertex 25.378679656440358 25.378679656440358 70.0
  endloop
endfacet
facet normal -0.7933533402912343 -0.608761429008722 -0.0
  outer loop
    vertex 25.378679656440358 25.378679656440358 5.0
    vertex 24.901923788646684 25.999999999999996 70.0
    vertex 24.901923788646684 25.999999999999996 5.0
  endloop
endfacet
facet normal -0.6087614290087207 -0.793353340291235 -0.0
  outer loop
    vertex 26.000000000000004 24.901923788646684 70.0
    vertex 25.378679656440358 25.378679656440358 5.0
    vertex 26.000000000000004 24.901923788646684 5.0
  endloop
endfacet
facet normal -0.6087614290087207 -0.793353340291235 -0.0
  outer loop
    vertex 25.378679656440358 25.378679656440358 5.0
    vertex 26.000000000000004 24.901923788646684 70.0
    vertex 25.378679656440358 25.378679656440358 70.0
  endloop
endfacet
facet normal -0.3826834323650895 -0.9238795325112868 -0.0
  outer loop
    vertex 26.723542864692437 24.602222521132795 70.0
    vertex 26.000000000000004 24.901923788646684 5.0
    vertex 26.723542864692437 24.602222521132795 5.0
  endloop
endfacet
facet normal -0.3826834323650895 -0.9238795325112868 -0.0
  outer loop
    vertex 26.000000000000004 24.901923788646684 5.0
    vertex 26.723542864692437 24.602222521132795 70.0
    vertex 26.000000000000004 24.901923788646684 70.0
  endloop
endfacet
facet normal -0.13052619222005168 -0.9914448613738105 -0.0
  outer loop
    vertex 27.5 24.5 70.0
    vertex 26.723542864692437 24.602222521132795 5.0
    vertex 27.5 24.5 5.0
  endloop
endfacet
facet normal -0.13052619222005168 -0.9914448613738105 -0.0
  outer loop
    vertex 26.723542864692437 24.602222521132795 5.0
    vertex 27.5 24.5 70.0
    vertex 26.723542864692437 24.602222521132795 70.0
  endloop
endfacet
facet normal 0.13052619222005168 -0.9914448613738105 0.0
  outer loop
    vertex 28.276457135307563 24.602222521132795 70.0
    vertex 27.5 24.5 5.0
    vertex 28.276457135307563 24.602222521132795 5.0
  endloop
endfacet
facet normal 0.13052619222005168 -0.9914448613738105 0.0
  outer loop
    vertex 27.5 24.5 5.0
    vertex 28.276457135307563 24.602222521132795 70.0
    vertex 27.5 24.5 70.0
  endloop
endfacet
facet normal 0.38268343236509006 -0.9238795325112867 0.0
  outer loop
    vertex 29.000000000000004 24.901923788646684 70.0
    vertex 28.276457135307563 24.602222521132795 5.0
    vertex 29.000000000000004 24.901923788646684 5.0
  endloop
endfacet
facet normal 0.38268343236509006 -0.9238795325112867 0.0
  outer loop
    vertex 28.276457135307563 24.602222521132795 5.0
    vertex 29.000000000000004 24.901923788646684 70.0
    vertex 28.276457135307563 24.602222521132795 70.0
  endloop
endfacet
facet normal 0.608761429008722 -0.7933533402912343 0.0
  outer loop
    vertex 29.621320343559642 25.378679656440358 70.0
    vertex 29.000000000000004 24.901923788646684 5.0
    vertex 29.621320343559642 25.378679656440358 5.0
  endloop
endfacet
facet normal 0.608761429008722 -0.7933533402912343 0.0
  outer loop
    vertex 29.000000000000004 24.901923788646684 5.0
    vertex 29.621320343559642 25.378679656440358 70.0
    vertex 29.000000000000004 24.901923788646684 70.0
  endloop
endfacet
facet normal 0.793353340291235 -0.6087614290087207 0.0
  outer loop
    vertex 30.09807621135332 26.000000000000004 5.0
    vertex 29.621320343559642 25.378679656440358 70.0
    vertex 29.621320343559642 25.378679656440358 5.0
  endloop
endfacet
facet normal 0.793353340291235 -0.6087614290087207 0.0
  outer loop
    vertex 29.621320343559642 25.378679656440358 70.0
    vertex 30.09807621135332 26.000000000000004 5.0
    vertex 30.09807621135332 26.000000000000004 70.0
  endloop
endfacet
facet normal 0.9238795325112868 -0.3826834323650895 0.0
  outer loop
    vertex 30.397777478867205 26.723542864692437 5.0
    vertex 30.09807621135332 26.000000000000004 70.0
    vertex 30.09807621135332 26.000000000000004 5.0
  endloop
endfacet
facet normal 0.9238795325112868 -0.3826834323650895 0.0
  outer loop
    vertex 30.09807621135332 26.000000000000004 70.0
    vertex 30.397777478867205 26.723542864692437 5.0
    vertex 30.397777478867205 26.723542864692437 70.0
  endloop
endfacet
facet normal 0.9914448613738105 -0.13052619222005168 0.0
  outer loop
    vertex 30.5 27.5 5.0
    vertex 30.397777478867205 26.723542864692437 70.0
    vertex 30.397777478867205 26.723542864692437 5.0
  endloop
endfacet
facet normal 0.9914448613738105 -0.13052619222005168 0.0
  outer loop
    vertex 30.397777478867205 26.723542864692437 70.0
    vertex 30.5 27.5 5.0
    vertex 30.5 27.5 70.0
  endloop
endfacet
facet normal 0.9914448613738105 0.13052619222005168 0.0
  outer loop
    vertex 30.397777478867205 28.276457135307563 5.0
    vertex 30.5 27.5 70.0
    vertex 30.5 27.5 5.0
  endloop
endfacet
facet normal 0.9914448613738105 0.13052619222005168 0.0
  outer loop
    vertex 30.5 27.5 70.0
    vertex 30.397777478867205 28.276457135307563 5.0
    vertex 30.397777478867205 28.276457135307563 70.0
  endloop
endfacet
facet normal 0.923879532511288 0.38268343236508695 0.0
  outer loop
    vertex 30.09807621135332 29.000000000000004 5.0
    vertex 30.397777478867205 28.276457135307563 70.0
    vertex 30.397777478867205 28.276457135307563 5.0
  endloop
endfacet
facet normal 0.923879532511288 0.38268343236508695 0.0
  outer loop
    vertex 30.397777478867205 28.276457135307563 70.0
    vertex 30.09807621135332 29.000000000000004 5.0
    vertex 30.09807621135332 29.000000000000004 70.0
  endloop
endfacet
facet normal 0.7933533402912324 0.6087614290087242 0.0
  outer loop
    vertex 29.621320343559642 29.621320343559642 5.0
    vertex 30.09807621135332 29.000000000000004 70.0
    vertex 30.09807621135332 29.000000000000004 5.0
  endloop
endfacet
facet normal 0.7933533402912324 0.6087614290087242 0.0
  outer loop
    vertex 30.09807621135332 29.000000000000004 70.0
    vertex 29.621320343559642 29.621320343559642 5.0
    vertex 29.621320343559642 29.621320343559642 70.0
  endloop
endfacet
facet normal 0.6087614290087207 0.793353340291235 0.0
  outer loop
    vertex 28.999999999999996 30.09807621135332 70.0
    vertex 29.621320343559642 29.621320343559642 5.0
    vertex 28.999999999999996 30.09807621135332 5.0
  endloop
endfacet
facet normal 0.6087614290087207 0.793353340291235 0.0
  outer loop
    vertex 29.621320343559642 29.621320343559642 5.0
    vertex 28.999999999999996 30.09807621135332 70.0
    vertex 29.621320343559642 29.621320343559642 70.0
  endloop
endfacet
facet normal 0.3826834323650895 0.9238795325112868 0.0
  outer loop
    vertex 28.276457135307563 30.397777478867205 70.0
    vertex 28.999999999999996 30.09807621135332 5.0
    vertex 28.276457135307563 30.397777478867205 5.0
  endloop
endfacet
facet normal 0.3826834323650895 0.9238795325112868 0.0
  outer loop
    vertex 28.999999999999996 30.09807621135332 5.0
    vertex 28.276457135307563 30.397777478867205 70.0
    vertex 28.999999999999996 30.09807621135332 70.0
  endloop
endfacet
facet normal 0.13052619222005168 0.9914448613738105 0.0
  outer loop
    vertex 27.5 30.5 70.0
    vertex 28.276457135307563 30.397777478867205 5.0
    vertex 27.5 30.5 5.0
  endloop
endfacet
facet normal 0.13052619222005168 0.9914448613738105 0.0
  outer loop
    vertex 28.276457135307563 30.397777478867205 5.0
    vertex 27.5 30.5 70.0
    vertex 28.276457135307563 30.397777478867205 70.0
  endloop
endfacet
facet normal -0.13052619222005168 0.9914448613738105 0.0
  outer loop
    vertex 26.723542864692437 30.397777478867205 70.0
    vertex 27.5 30.5 5.0
    vertex 26.723542864692437 30.397777478867205 5.0
  endloop
endfacet
facet normal -0.13052619222005168 0.9914448613738105 0.0
  outer loop
    vertex 27.5 30.5 5.0
    vertex 26.723542864692437 30.397777478867205 70.0
    vertex 27.5 30.5 70.0
  endloop
endfacet
facet normal -0.38268343236508695 0.923879532511288 0.0
  outer loop
    vertex 25.999999999999996 30.09807621135332 70.0
    vertex 26.723542864692437 30.397777478867205 5.0
    vertex 25.999999999999996 30.09807621135332 5.0
  endloop
endfacet
facet normal -0.38268343236508695 0.923879532511288 0.0
  outer loop
    vertex 26.723542864692437 30.397777478867205 5.0
    vertex 25.999999999999996 30.09807621135332 70.0
    vertex 26.723542864692437 30.397777478867205 70.0
  endloop
endfacet
facet normal -0.6087614290087242 0.7933533402912324 0.0
  outer loop
    vertex 25.378679656440358 29.621320343559642 70.0
    vertex 25.999999999999996 30.09807621135332 5.0
    vertex 25.378679656440358 29.621320343559642 5.0
  endloop
endfacet
facet normal -0.6087614290087242 0.7933533402912324 0.0
  outer loop
    vertex 25.999999999999996 30.09807621135332 5.0
    vertex 25.378679656440358 29.621320343559642 70.0
    vertex 25.999999999999996 30.09807621135332 70.0
  endloop
endfacet
facet normal -0.793353340291235 0.6087614290087207 0.0
  outer loop
    vertex 25.378679656440358 29.621320343559642 70.0
    vertex 24.901923788646684 28.999999999999996 5.0
    vertex 24.901923788646684 28.999999999999996 70.0
  endloop
endfacet
facet normal -0.793353340291235 0.6087614290087207 0.0
  outer loop
    vertex 24.901923788646684 28.999999999999996 5.0
    vertex 25.378679656440358 29.621320343559642 70.0
    vertex 25.378679656440358 29.621320343559642 5.0
  endloop
endfacet
facet normal -0.9238795325112868 0.3826834323650895 0.0
  outer loop
    vertex 24.901923788646684 28.999999999999996 70.0
    vertex 24.602222521132795 28.276457135307563 5.0
    vertex 24.602222521132795 28.276457135307563 70.0
  endloop
endfacet
facet normal -0.9238795325112868 0.3826834323650895 0.0
  outer loop
    vertex 24.602222521132795 28.276457135307563 5.0
    vertex 24.901923788646684 28.999999999999996 70.0
    vertex 24.901923788646684 28.999999999999996 5.0
  endloop
endfacet
facet normal -0.25782130619586374 -0.9661926174792782 -0.0
  outer loop
    vertex 72.11149350239037 24.525262582795737 70.0
    vertex 71.3548128425262 24.727177183021414 5.0
    vertex 72.11149350239037 24.525262582795737 5.0
  endloop
endfacet
facet normal -0.25782130619586374 -0.9661926174792782 -0.0
  outer loop
    vertex 71.3548128425262 24.727177183021414 5.0
    vertex 72.11149350239037 24.525262582795737 70.0
    vertex 71.3548128425262 24.727177183021414 70.0
  endloop
endfacet
facet normal -0.49910530886325405 -0.8665413381163738 -0.0
  outer loop
    vertex 71.3548128425262 24.727177183021414 70.0
    vertex 70.6761747949326 25.118055075917816 5.0
    vertex 71.3548128425262 24.727177183021414 5.0
  endloop
endfacet
facet normal -0.49910530886325405 -0.8665413381163738 -0.0
  outer loop
    vertex 70.6761747949326 25.118055075917816 5.0
    vertex 71.3548128425262 24.727177183021414 70.0
    vertex 70.6761747949326 25.118055075917816 70.0
  endloop
endfacet
facet normal -0.7063761095421475 -0.7078366985880995 -0.0
  outer loop
    vertex 70.6761747949326 25.118055075917816 70.0
    vertex 70.12182742105071 25.671258579040316 5.0
    vertex 70.6761747949326 25.118055075917816 5.0
  endloop
endfacet
facet normal -0.7063761095421475 -0.7078366985880995 -0.0
  outer loop
    vertex 70.12182742105071 25.671258579040316 5.0
    vertex 70.6761747949326 25.118055075917816 70.0
    vertex 70.12182742105071 25.671258579040316 70.0
  endloop
endfacet
facet normal -0.8655085456974446 -0.5008941578065115 -0.0
  outer loop
    vertex 69.72954857830818 26.349087787863134 70.0
    vertex 70.12182742105071 25.671258579040316 5.0
    vertex 70.12182742105071 25.671258579040316 70.0
  endloop
endfacet
facet normal -0.8655085456974446 -0.5008941578065115 -0.0
  outer loop
    vertex 70.12182742105071 25.671258579040316 5.0
    vertex 69.72954857830818 26.349087787863134 70.0
    vertex 69.72954857830818 26.349087787863134 5.0
  endloop
endfacet
facet normal -0.9656580047839692 -0.2598165079371283 -0.0
  outer loop
    vertex 69.52607142156651 27.105349761970714 70.0
    vertex 69.72954857830818 26.349087787863134 5.0
    vertex 69.72954857830818 26.349087787863134 70.0
  endloop
endfacet
facet normal -0.9656580047839692 -0.2598165079371283 -0.0
  outer loop
    vertex 69.72954857830818 26.349087787863134 5.0
    vertex 69.52607142156651 27.105349761970714 70.0
    vertex 69.52607142156651 27.105349761970714 5.0
  endloop
endfacet
facet normal -0.9999994666697675 -0.001032792418938671 -0.0
  outer loop
    vertex 69.52566382957517 27.5 70.0
    vertex 69.52607142156651 27.105349761970714 5.0
    vertex 69.52607142156651 27.105349761970714 70.0
  endloop
endfacet
facet normal -0.9999994666697675 -0.001032792418938671 -0.0
  outer loop
    vertex 69.52607142156651 27.105349761970714 5.0
    vertex 69.52566382957517 27.5 70.0
    vertex 69.52566382957517 27.5 5.0
  endloop
endfacet
facet normal -0.9999994666697675 -0.001032792418927553 -0.0
  outer loop
    vertex 69.52526258279573 27.888506497609633 70.0
    vertex 69.52566382957517 27.5 5.0
    vertex 69.52566382957517 27.5 70.0
  endloop
endfacet
facet normal -0.9999994666697675 -0.001032792418927553 -0.0
  outer loop
    vertex 69.52566382957517 27.5 5.0
    vertex 69.52526258279573 27.888506497609633 70.0
    vertex 69.52526258279573 27.888506497609633 5.0
  endloop
endfacet
facet normal -0.9661926174792778 0.2578213061958653 0.0
  outer loop
    vertex 69.72717718302141 28.645187157473806 70.0
    vertex 69.52526258279573 27.888506497609633 5.0
    vertex 69.52526258279573 27.888506497609633 70.0
  endloop
endfacet
facet normal -0.9661926174792778 0.2578213061958653 0.0
  outer loop
    vertex 69.52526258279573 27.888506497609633 5.0
    vertex 69.72717718302141 28.645187157473806 70.0
    vertex 69.72717718302141 28.645187157473806 5.0
  endloop
endfacet
facet normal -0.8665413381163719 0.49910530886325766 0.0
  outer loop
    vertex 70.11805507591781 29.323825205067394 70.0
    vertex 69.72717718302141 28.645187157473806 5.0
    vertex 69.72717718302141 28.645187157473806 70.0
  endloop
endfacet
facet normal -0.8665413381163719 0.49910530886325766 0.0
  outer loop
    vertex 69.72717718302141 28.645187157473806 5.0
    vertex 70.11805507591781 29.323825205067394 70.0
    vertex 70.11805507591781 29.323825205067394 5.0
  endloop
endfacet
facet normal -0.7078366985880995 0.7063761095421476 0.0
  outer loop
    vertex 70.67125857904031 29.878172578949297 70.0
    vertex 70.11805507591781 29.323825205067394 5.0
    vertex 70.11805507591781 29.323825205067394 70.0
  endloop
endfacet
facet normal -0.7078366985880995 0.7063761095421476 0.0
  outer loop
    vertex 70.11805507591781 29.323825205067394 5.0
    vertex 70.67125857904031 29.878172578949297 70.0
    vertex 70.67125857904031 29.878172578949297 5.0
  endloop
endfacet
facet normal -0.5008941578065115 0.8655085456974446 0.0
  outer loop
    vertex 70.67125857904031 29.878172578949297 70.0
    vertex 71.34908778786314 30.27045142169182 5.0
    vertex 70.67125857904031 29.878172578949297 5.0
  endloop
endfacet
facet normal -0.5008941578065115 0.8655085456974446 0.0
  outer loop
    vertex 71.34908778786314 30.27045142169182 5.0
    vertex 70.67125857904031 29.878172578949297 70.0
    vertex 71.34908778786314 30.27045142169182 70.0
  endloop
endfacet
facet normal -0.2598165079371301 0.9656580047839688 0.0
  outer loop
    vertex 71.34908778786314 30.27045142169182 70.0
    vertex 72.10534976197071 30.473928578433487 5.0
    vertex 71.34908778786314 30.27045142169182 5.0
  endloop
endfacet
facet normal -0.2598165079371301 0.9656580047839688 0.0
  outer loop
    vertex 72.10534976197071 30.473928578433487 5.0
    vertex 71.34908778786314 30.27045142169182 70.0
    vertex 72.10534976197071 30.473928578433487 70.0
  endloop
endfacet
facet normal -0.001032792418924365 0.9999994666697675 0.0
  outer loop
    vertex 72.10534976197071 30.473928578433487 70.0
    vertex 72.5 30.47433617042483 5.0
    vertex 72.10534976197071 30.473928578433487 5.0
  endloop
endfacet
facet normal -0.001032792418924365 0.9999994666697675 0.0
  outer loop
    vertex 72.5 30.47433617042483 5.0
    vertex 72.10534976197071 30.473928578433487 70.0
    vertex 72.5 30.47433617042483 70.0
  endloop
endfacet
facet normal -0.001032792418927553 0.9999994666697675 0.0
  outer loop
    vertex 72.5 30.47433617042483 70.0
    vertex 72.88850649760964 30.474737417204263 5.0
    vertex 72.5 30.47433617042483 5.0
  endloop
endfacet
facet normal -0.001032792418927553 0.9999994666697675 0.0
  outer loop
    vertex 72.88850649760964 30.474737417204263 5.0
    vertex 72.5 30.47433617042483 70.0
    vertex 72.88850649760964 30.474737417204263 70.0
  endloop
endfacet
facet normal 0.25782130619586036 0.9661926174792791 0.0
  outer loop
    vertex 72.88850649760964 30.474737417204263 70.0
    vertex 73.6451871574738 30.27282281697859 5.0
    vertex 72.88850649760964 30.474737417204263 5.0
  endloop
endfacet
facet normal 0.25782130619586036 0.9661926174792791 0.0
  outer loop
    vertex 73.6451871574738 30.27282281697859 5.0
    vertex 72.88850649760964 30.474737417204263 70.0
    vertex 73.6451871574738 30.27282281697859 70.0
  endloop
endfacet
facet normal 0.49910530886326304 0.8665413381163687 0.0
  outer loop
    vertex 73.6451871574738 30.27282281697859 70.0
    vertex 74.3238252050674 29.881944924082184 5.0
    vertex 73.6451871574738 30.27282281697859 5.0
  endloop
endfacet
facet normal 0.49910530886326304 0.8665413381163687 0.0
  outer loop
    vertex 74.3238252050674 29.881944924082184 5.0
    vertex 73.6451871574738 30.27282281697859 70.0
    vertex 74.3238252050674 29.881944924082184 70.0
  endloop
endfacet
facet normal 0.7063761095421404 0.7078366985881067 0.0
  outer loop
    vertex 74.3238252050674 29.881944924082184 70.0
    vertex 74.8781725789493 29.328741420959684 5.0
    vertex 74.3238252050674 29.881944924082184 5.0
  endloop
endfacet
facet normal 0.7063761095421404 0.7078366985881067 0.0
  outer loop
    vertex 74.8781725789493 29.328741420959684 5.0
    vertex 74.3238252050674 29.881944924082184 70.0
    vertex 74.8781725789493 29.328741420959684 70.0
  endloop
endfacet
facet normal 0.8655085456974446 0.5008941578065115 0.0
  outer loop
    vertex 74.8781725789493 29.328741420959684 5.0
    vertex 75.27045142169182 28.65091221213687 70.0
    vertex 75.27045142169182 28.65091221213687 5.0
  endloop
endfacet
facet normal 0.8655085456974446 0.5008941578065115 0.0
  outer loop
    vertex 75.27045142169182 28.65091221213687 70.0
    vertex 74.8781725789493 29.328741420959684 5.0
    vertex 74.8781725789493 29.328741420959684 70.0
  endloop
endfacet
facet normal 0.0 0.0 1.0
  outer loop
    vertex 24.602222521132795 26.723542864692437 70.0
    vertex 24.602222521132795 28.276457135307563 70.0
    vertex 24.5 27.5 70.0
  endloop
endfacet
facet normal 0.0 0.0 1.0
  outer loop
    vertex 24.602222521132795 28.276457135307563 70.0
    vertex 24.602222521132795 26.723542864692437 70.0
    vertex 24.901923788646684 25.999999999999996 70.0
  endloop
endfacet
facet normal 0.0 0.0 1.0
  outer loop
    vertex 24.602222521132795 28.276457135307563 70.0
    vertex 24.901923788646684 25.999999999999996 70.0
    vertex 24.901923788646684 28.999999999999996 70.0
  endloop
endfacet
facet normal 0.0 0.0 1.0
  outer loop
    vertex 24.901923788646684 28.999999999999996 70.0
    vertex 24.901923788646684 25.999999999999996 70.0
    vertex 25.378679656440358 29.621320343559642 70.0
  endloop
endfacet
facet normal 0.0 0.0 1.0
  outer loop
    vertex 25.378679656440358 29.621320343559642 70.0
    vertex 24.901923788646684 25.999999999999996 70.0
    vertex 25.378679656440358 25.378679656440358 70.0
  endloop
endfacet
facet normal 0.0 0.0 1.0
  outer loop
    vertex 25.378679656440358 29.621320343559642 70.0
    vertex 25.378679656440358 25.378679656440358 70.0
    vertex 26.000000000000004 24.901923788646684 70.0
  endloop
endfacet
facet normal 0.0 0.0 1.0
  outer loop
    vertex 25.378679656440358 29.621320343559642 70.0
    vertex 26.000000000000004 24.901923788646684 70.0
    vertex 25.999999999999996 30.09807621135332 70.0
  endloop
endfacet
facet normal 0.0 0.0 1.0
  outer loop
    vertex 25.999999999999996 30.09807621135332 70.0
    vertex 26.000000000000004 24.901923788646684 70.0
    vertex 26.723542864692437 30.397777478867205 70.0
  endloop
endfacet
facet normal 0.0 0.0 1.0
  outer loop
    vertex 26.723542864692437 30.397777478867205 70.0
    vertex 26.000000000000004 24.901923788646684 70.0
    vertex 26.723542864692437 24.602222521132795 70.0
  endloop
endfacet
facet normal 0.0 0.0 1.0
  outer loop
    vertex 26.723542864692437 30.397777478867205 70.0
    vertex 26.723542864692437 24.602222521132795 70.0
    vertex 27.5 24.5 70.0
  endloop
endfacet
facet normal 0.0 0.0 1.0
  outer loop
    vertex 26.723542864692437 30.397777478867205 70.0
    vertex 27.5 24.5 70.0
    vertex 27.5 30.5 70.0
  endloop
endfacet
facet normal 0.0 0.0 1.0
  outer loop
    vertex 27.5 30.5 70.0
    vertex 27.5 24.5 70.0
    vertex 28.276457135307563 24.602222521132795 70.0
  endloop
endfacet
facet normal 0.0 0.0 1.0
  outer loop
    vertex 27.5 30.5 70.0
    vertex 28.276457135307563 24.602222521132795 70.0
    vertex 28.276457135307563 30.397777478867205 70.0
  endloop
endfacet
facet normal 0.0 0.0 1.0
  outer loop
    vertex 28.276457135307563 30.397777478867205 70.0
    vertex 28.276457135307563 24.602222521132795 70.0
    vertex 29.000000000000004 24.901923788646684 70.0
  endloop
endfacet
facet normal 0.0 0.0 1.0
  outer loop
    vertex 28.276457135307563 30.397777478867205 70.0
    vertex 29.000000000000004 24.901923788646684 70.0
    vertex 28.999999999999996 30.09807621135332 70.0
  endloop
endfacet
facet normal 0.0 0.0 1.0
  outer loop
    vertex 28.999999999999996 30.09807621135332 70.0
    vertex 29.000000000000004 24.901923788646684 70.0
    vertex 29.621320343559642 29.621320343559642 70.0
  endloop
endfacet
facet normal 0.0 0.0 1.0
  outer loop
    vertex 29.621320343559642 29.621320343559642 70.0
    vertex 29.000000000000004 24.901923788646684 70.0
    vertex 29.621320343559642 25.378679656440358 70.0
  endloop
endfacet
facet normal 0.0 0.0 1.0
  outer loop
    vertex 29.621320343559642 29.621320343559642 70.0
    vertex 29.621320343559642 25.378679656440358 70.0
    vertex 30.09807621135332 26.000000000000004 70.0
  endloop
endfacet
facet normal 0.0 0.0 1.0
  outer loop
    vertex 29.621320343559642 29.621320343559642 70.0
    vertex 30.09807621135332 26.000000000000004 70.0
    vertex 30.09807621135332 29.000000000000004 70.0
  endloop
endfacet
facet normal 0.0 0.0 1.0
  outer loop
    vertex 30.09807621135332 29.000000000000004 70.0
    vertex 30.09807621135332 26.000000000000004 70.0
    vertex 30.397777478867205 26.723542864692437 70.0
  endloop
endfacet
facet normal 0.0 0.0 1.0
  outer loop
    vertex 30.09807621135332 29.000000000000004 70.0
    vertex 30.397777478867205 26.723542864692437 70.0
    vertex 30.397777478867205 28.276457135307563 70.0
  endloop
endfacet
facet normal 0.0 0.0 1.0
  outer loop
    vertex 30.397777478867205 28.276457135307563 70.0
    vertex 30.397777478867205 26.723542864692437 70.0
    vertex 30.5 27.5 70.0
  endloop
endfacet
facet normal -0.7933533402912324 -0.6087614290087242 -0.0
  outer loop
    vertex 114.90192378864668 25.999999999999996 70.0
    vertex 115.37867965644037 25.378679656440358 5.0
    vertex 115.37867965644037 25.378679656440358 70.0
  endloop
endfacet
facet normal -0.7933533402912324 -0.6087614290087242 -0.0
  outer loop
    vertex 115.37867965644037 25.378679656440358 5.0
    vertex 114.90192378864668 25.999999999999996 70.0
    vertex 114.90192378864668 25.999999999999996 5.0
  endloop
endfacet
facet normal -0.9238795325112906 -0.38268343236508084 -0.0
  outer loop
    vertex 114.6022225211328 26.723542864692437 70.0
    vertex 114.90192378864668 25.999999999999996 5.0
    vertex 114.90192378864668 25.999999999999996 70.0
  endloop
endfacet
facet normal -0.9238795325112906 -0.38268343236508084 -0.0
  outer loop
    vertex 114.90192378864668 25.999999999999996 5.0
    vertex 114.6022225211328 26.723542864692437 70.0
    vertex 114.6022225211328 26.723542864692437 5.0
  endloop
endfacet
facet normal -0.9914448613738114 -0.1305261922200446 -0.0
  outer loop
    vertex 114.50000000000001 27.5 70.0
    vertex 114.6022225211328 26.723542864692437 5.0
    vertex 114.6022225211328 26.723542864692437 70.0
  endloop
endfacet
facet normal -0.9914448613738114 -0.1305261922200446 -0.0
  outer loop
    vertex 114.6022225211328 26.723542864692437 5.0
    vertex 114.50000000000001 27.5 70.0
    vertex 114.50000000000001 27.5 5.0
  endloop
endfacet
facet normal -0.9914448613738114 0.1305261922200446 0.0
  outer loop
    vertex 114.6022225211328 28.276457135307563 70.0
    vertex 114.50000000000001 27.5 5.0
    vertex 114.50000000000001 27.5 70.0
  endloop
endfacet
facet normal -0.9914448613738114 0.1305261922200446 0.0
  outer loop
    vertex 114.50000000000001 27.5 5.0
    vertex 114.6022225211328 28.276457135307563 70.0
    vertex 114.6022225211328 28.276457135307563 5.0
  endloop
endfacet
facet normal -0.608761429008715 -0.7933533402912395 -0.0
  outer loop
    vertex 116.00000000000001 24.901923788646684 70.0
    vertex 115.37867965644037 25.378679656440358 5.0
    vertex 116.00000000000001 24.901923788646684 5.0
  endloop
endfacet
facet normal -0.608761429008715 -0.7933533402912395 -0.0
  outer loop
    vertex 115.37867965644037 25.378679656440358 5.0
    vertex 116.00000000000001 24.901923788646684 70.0
    vertex 115.37867965644037 25.378679656440358 70.0
  endloop
endfacet
facet normal -0.38268343236509006 -0.9238795325112867 -0.0
  outer loop
    vertex 116.72354286469245 24.602222521132795 70.0
    vertex 116.00000000000001 24.901923788646684 5.0
    vertex 116.72354286469245 24.602222521132795 5.0
  endloop
endfacet
facet normal -0.38268343236509006 -0.9238795325112867 -0.0
  outer loop
    vertex 116.00000000000001 24.901923788646684 5.0
    vertex 116.72354286469245 24.602222521132795 70.0
    vertex 116.00000000000001 24.901923788646684 70.0
  endloop
endfacet
facet normal -0.13052619222005263 -0.9914448613738104 -0.0
  outer loop
    vertex 117.50000000000001 24.5 70.0
    vertex 116.72354286469245 24.602222521132795 5.0
    vertex 117.50000000000001 24.5 5.0
  endloop
endfacet
facet normal -0.13052619222005263 -0.9914448613738104 -0.0
  outer loop
    vertex 116.72354286469245 24.602222521132795 5.0
    vertex 117.50000000000001 24.5 70.0
    vertex 116.72354286469245 24.602222521132795 70.0
  endloop
endfacet
facet normal 0.13052619222005263 -0.9914448613738104 0.0
  outer loop
    vertex 118.27645713530757 24.602222521132795 70.0
    vertex 117.50000000000001 24.5 5.0
    vertex 118.27645713530757 24.602222521132795 5.0
  endloop
endfacet
facet normal 0.13052619222005263 -0.9914448613738104 0.0
  outer loop
    vertex 117.50000000000001 24.5 5.0
    vertex 118.27645713530757 24.602222521132795 70.0
    vertex 117.50000000000001 24.5 70.0
  endloop
endfacet
facet normal 0.38268343236509006 -0.9238795325112867 0.0
  outer loop
    vertex 119.00000000000001 24.901923788646684 70.0
    vertex 118.27645713530757 24.602222521132795 5.0
    vertex 119.00000000000001 24.901923788646684 5.0
  endloop
endfacet
facet normal 0.38268343236509006 -0.9238795325112867 0.0
  outer loop
    vertex 118.27645713530757 24.602222521132795 5.0
    vertex 119.00000000000001 24.901923788646684 70.0
    vertex 118.27645713530757 24.602222521132795 70.0
  endloop
endfacet
facet normal 0.608761429008715 -0.7933533402912395 0.0
  outer loop
    vertex 119.62132034355966 25.378679656440358 70.0
    vertex 119.00000000000001 24.901923788646684 5.0
    vertex 119.62132034355966 25.378679656440358 5.0
  endloop
endfacet
facet normal 0.608761429008715 -0.7933533402912395 0.0
  outer loop
    vertex 119.00000000000001 24.901923788646684 5.0
    vertex 119.62132034355966 25.378679656440358 70.0
    vertex 119.00000000000001 24.901923788646684 70.0
  endloop
endfacet
facet normal 0.793353340291235 -0.6087614290087207 0.0
  outer loop
    vertex 120.09807621135333 26.000000000000004 5.0
    vertex 119.62132034355966 25.378679656440358 70.0
    vertex 119.62132034355966 25.378679656440358 5.0
  endloop
endfacet
facet normal 0.793353340291235 -0.6087614290087207 0.0
  outer loop
    vertex 119.62132034355966 25.378679656440358 70.0
    vertex 120.09807621135333 26.000000000000004 5.0
    vertex 120.09807621135333 26.000000000000004 70.0
  endloop
endfacet
facet normal 0.9238795325112894 -0.38268343236508334 0.0
  outer loop
    vertex 120.39777747886721 26.723542864692437 5.0
    vertex 120.09807621135333 26.000000000000004 70.0
    vertex 120.09807621135333 26.000000000000004 5.0
  endloop
endfacet
facet normal 0.9238795325112894 -0.38268343236508334 0.0
  outer loop
    vertex 120.09807621135333 26.000000000000004 70.0
    vertex 120.39777747886721 26.723542864692437 5.0
    vertex 120.39777747886721 26.723542864692437 70.0
  endloop
endfacet
facet normal 0.9914448613738114 -0.1305261922200446 0.0
  outer loop
    vertex 120.5 27.5 5.0
    vertex 120.39777747886721 26.723542864692437 70.0
    vertex 120.39777747886721 26.723542864692437 5.0
  endloop
endfacet
facet normal 0.9914448613738114 -0.1305261922200446 0.0
  outer loop
    vertex 120.39777747886721 26.723542864692437 70.0
    vertex 120.5 27.5 5.0
    vertex 120.5 27.5 70.0
  endloop
endfacet
facet normal 0.9914448613738114 0.1305261922200446 0.0
  outer loop
    vertex 120.39777747886721 28.276457135307563 5.0
    vertex 120.5 27.5 70.0
    vertex 120.5 27.5 5.0
  endloop
endfacet
facet normal 0.9914448613738114 0.1305261922200446 0.0
  outer loop
    vertex 120.5 27.5 70.0
    vertex 120.39777747886721 28.276457135307563 5.0
    vertex 120.39777747886721 28.276457135307563 70.0
  endloop
endfacet
facet normal 0.9238795325112906 0.38268343236508084 0.0
  outer loop
    vertex 120.09807621135333 29.000000000000004 5.0
    vertex 120.39777747886721 28.276457135307563 70.0
    vertex 120.39777747886721 28.276457135307563 5.0
  endloop
endfacet
facet normal 0.9238795325112906 0.38268343236508084 0.0
  outer loop
    vertex 120.39777747886721 28.276457135307563 70.0
    vertex 120.09807621135333 29.000000000000004 5.0
    vertex 120.09807621135333 29.000000000000004 70.0
  endloop
endfacet
facet normal 0.7933533402912324 0.6087614290087242 0.0
  outer loop
    vertex 119.62132034355966 29.621320343559642 5.0
    vertex 120.09807621135333 29.000000000000004 70.0
    vertex 120.09807621135333 29.000000000000004 5.0
  endloop
endfacet
facet normal 0.7933533402912324 0.6087614290087242 0.0
  outer loop
    vertex 120.09807621135333 29.000000000000004 70.0
    vertex 119.62132034355966 29.621320343559642 5.0
    vertex 119.62132034355966 29.621320343559642 70.0
  endloop
endfacet
facet normal 0.6087614290087172 0.7933533402912378 0.0
  outer loop
    vertex 119.00000000000001 30.09807621135332 70.0
    vertex 119.62132034355966 29.621320343559642 5.0
    vertex 119.00000000000001 30.09807621135332 5.0
  endloop
endfacet
facet normal 0.6087614290087172 0.7933533402912378 0.0
  outer loop
    vertex 119.62132034355966 29.621320343559642 5.0
    vertex 119.00000000000001 30.09807621135332 70.0
    vertex 119.62132034355966 29.621320343559642 70.0
  endloop
endfacet
facet normal 0.38268343236508695 0.923879532511288 0.0
  outer loop
    vertex 118.27645713530757 30.397777478867205 70.0
    vertex 119.00000000000001 30.09807621135332 5.0
    vertex 118.27645713530757 30.397777478867205 5.0
  endloop
endfacet
facet normal 0.38268343236508695 0.923879532511288 0.0
  outer loop
    vertex 119.00000000000001 30.09807621135332 5.0
    vertex 118.27645713530757 30.397777478867205 70.0
    vertex 119.00000000000001 30.09807621135332 70.0
  endloop
endfacet
facet normal 0.13052619222005263 0.9914448613738104 0.0
  outer loop
    vertex 117.50000000000001 30.5 70.0
    vertex 118.27645713530757 30.397777478867205 5.0
    vertex 117.50000000000001 30.5 5.0
  endloop
endfacet
facet normal 0.13052619222005263 0.9914448613738104 0.0
  outer loop
    vertex 118.27645713530757 30.397777478867205 5.0
    vertex 117.50000000000001 30.5 70.0
    vertex 118.27645713530757 30.397777478867205 70.0
  endloop
endfacet
facet normal -0.13052619222005263 0.9914448613738104 0.0
  outer loop
    vertex 116.72354286469245 30.397777478867205 70.0
    vertex 117.50000000000001 30.5 5.0
    vertex 116.72354286469245 30.397777478867205 5.0
  endloop
endfacet
facet normal -0.13052619222005263 0.9914448613738104 0.0
  outer loop
    vertex 117.50000000000001 30.5 5.0
    vertex 116.72354286469245 30.397777478867205 70.0
    vertex 117.50000000000001 30.5 70.0
  endloop
endfacet
facet normal -0.38268343236508695 0.923879532511288 0.0
  outer loop
    vertex 116.00000000000001 30.09807621135332 70.0
    vertex 116.72354286469245 30.397777478867205 5.0
    vertex 116.00000000000001 30.09807621135332 5.0
  endloop
endfacet
facet normal -0.38268343236508695 0.923879532511288 0.0
  outer loop
    vertex 116.72354286469245 30.397777478867205 5.0
    vertex 116.00000000000001 30.09807621135332 70.0
    vertex 116.72354286469245 30.397777478867205 70.0
  endloop
endfacet
facet normal -0.6087614290087172 0.7933533402912378 0.0
  outer loop
    vertex 115.37867965644037 29.621320343559642 70.0
    vertex 116.00000000000001 30.09807621135332 5.0
    vertex 115.37867965644037 29.621320343559642 5.0
  endloop
endfacet
facet normal -0.6087614290087172 0.7933533402912378 0.0
  outer loop
    vertex 116.00000000000001 30.09807621135332 5.0
    vertex 115.37867965644037 29.621320343559642 70.0
    vertex 116.00000000000001 30.09807621135332 70.0
  endloop
endfacet
facet normal -0.9238795325112894 0.38268343236508334 0.0
  outer loop
    vertex 114.90192378864668 28.999999999999996 70.0
    vertex 114.6022225211328 28.276457135307563 5.0
    vertex 114.6022225211328 28.276457135307563 70.0
  endloop
endfacet
facet normal -0.9238795325112894 0.38268343236508334 0.0
  outer loop
    vertex 114.6022225211328 28.276457135307563 5.0
    vertex 114.90192378864668 28.999999999999996 70.0
    vertex 114.90192378864668 28.999999999999996 5.0
  endloop
endfacet
facet normal -0.793353340291235 0.6087614290087207 0.0
  outer loop
    vertex 115.37867965644037 29.621320343559642 70.0
    vertex 114.90192378864668 28.999999999999996 5.0
    vertex 114.90192378864668 28.999999999999996 70.0
  endloop
endfacet
facet normal -0.793353340291235 0.6087614290087207 0.0
  outer loop
    vertex 114.90192378864668 28.999999999999996 5.0
    vertex 115.37867965644037 29.621320343559642 70.0
    vertex 115.37867965644037 29.621320343559642 5.0
  endloop
endfacet
facet normal 0.0 0.0 1.0
  outer loop
    vertex 114.6022225211328 26.723542864692437 70.0
    vertex 114.6022225211328 28.276457135307563 70.0
    vertex 114.50000000000001 27.5 70.0
  endloop
endfacet
facet normal 0.0 0.0 1.0
  outer loop
    vertex 114.6022225211328 28.276457135307563 70.0
    vertex 114.6022225211328 26.723542864692437 70.0
    vertex 114.90192378864668 25.999999999999996 70.0
  endloop
endfacet
facet normal 0.0 0.0 1.0
  outer loop
    vertex 114.6022225211328 28.276457135307563 70.0
    vertex 114.90192378864668 25.999999999999996 70.0
    vertex 114.90192378864668 28.999999999999996 70.0
  endloop
endfacet
facet normal 0.0 0.0 1.0
  outer loop
    vertex 114.90192378864668 28.999999999999996 70.0
    vertex 114.90192378864668 25.999999999999996 70.0
    vertex 115.37867965644037 25.378679656440358 70.0
  endloop
endfacet
facet normal 0.0 0.0 1.0
  outer loop
    vertex 114.90192378864668 28.999999999999996 70.0
    vertex 115.37867965644037 25.378679656440358 70.0
    vertex 115.37867965644037 29.621320343559642 70.0
  endloop
endfacet
facet normal 0.0 0.0 1.0
  outer loop
    vertex 115.37867965644037 29.621320343559642 70.0
    vertex 115.37867965644037 25.378679656440358 70.0
    vertex 116.00000000000001 24.901923788646684 70.0
  endloop
endfacet
facet normal 0.0 0.0 1.0
  outer loop
    vertex 115.37867965644037 29.621320343559642 70.0
    vertex 116.00000000000001 24.901923788646684 70.0
    vertex 116.00000000000001 30.09807621135332 70.0
  endloop
endfacet
facet normal 0.0 0.0 1.0
  outer loop
    vertex 116.00000000000001 30.09807621135332 70.0
    vertex 116.00000000000001 24.901923788646684 70.0
    vertex 116.72354286469245 24.602222521132795 70.0
  endloop
endfacet
facet normal 0.0 0.0 1.0
  outer loop
    vertex 116.00000000000001 30.09807621135332 70.0
    vertex 116.72354286469245 24.602222521132795 70.0
    vertex 116.72354286469245 30.397777478867205 70.0
  endloop
endfacet
facet normal 0.0 0.0 1.0
  outer loop
    vertex 116.72354286469245 30.397777478867205 70.0
    vertex 116.72354286469245 24.602222521132795 70.0
    vertex 117.50000000000001 24.5 70.0
  endloop
endfacet
facet normal 0.0 0.0 1.0
  outer loop
    vertex 116.72354286469245 30.397777478867205 70.0
    vertex 117.50000000000001 24.5 70.0
    vertex 117.50000000000001 30.5 70.0
  endloop
endfacet
facet normal 0.0 0.0 1.0
  outer loop
    vertex 117.50000000000001 30.5 70.0
    vertex 117.50000000000001 24.5 70.0
    vertex 118.27645713530757 24.602222521132795 70.0
  endloop
endfacet
facet normal 0.0 0.0 1.0
  outer loop
    vertex 117.50000000000001 30.5 70.0
    vertex 118.27645713530757 24.602222521132795 70.0
    vertex 118.27645713530757 30.397777478867205 70.0
  endloop
endfacet
facet normal 0.0 0.0 1.0
  outer loop
    vertex 118.27645713530757 30.397777478867205 70.0
    vertex 118.27645713530757 24.602222521132795 70.0
    vertex 119.00000000000001 24.901923788646684 70.0
  endloop
endfacet
facet normal 0.0 0.0 1.0
  outer loop
    vertex 118.27645713530757 30.397777478867205 70.0
    vertex 119.00000000000001 24.901923788646684 70.0
    vertex 119.00000000000001 30.09807621135332 70.0
  endloop
endfacet
facet normal 0.0 0.0 1.0
  outer loop
    vertex 119.00000000000001 30.09807621135332 70.0
    vertex 119.00000000000001 24.901923788646684 70.0
    vertex 119.62132034355966 25.378679656440358 70.0
  endloop
endfacet
facet normal 0.0 0.0 1.0
  outer loop
    vertex 119.00000000000001 30.09807621135332 70.0
    vertex 119.62132034355966 25.378679656440358 70.0
    vertex 119.62132034355966 29.621320343559642 70.0
  endloop
endfacet
facet normal 0.0 0.0 1.0
  outer loop
    vertex 119.62132034355966 29.621320343559642 70.0
    vertex 119.62132034355966 25.378679656440358 70.0
    vertex 120.09807621135333 26.000000000000004 70.0
  endloop
endfacet
facet normal 0.0 0.0 1.0
  outer loop
    vertex 119.62132034355966 29.621320343559642 70.0
    vertex 120.09807621135333 26.000000000000004 70.0
    vertex 120.09807621135333 29.000000000000004 70.0
  endloop
endfacet
facet normal 0.0 0.0 1.0
  outer loop
    vertex 120.09807621135333 29.000000000000004 70.0
    vertex 120.09807621135333 26.000000000000004 70.0
    vertex 120.39777747886721 26.723542864692437 70.0
  endloop
endfacet
facet normal 0.0 0.0 1.0
  outer loop
    vertex 120.09807621135333 29.000000000000004 70.0
    vertex 120.39777747886721 26.723542864692437 70.0
    vertex 120.39777747886721 28.276457135307563 70.0
  endloop
endfacet
facet normal 0.0 0.0 1.0
  outer loop
    vertex 120.39777747886721 28.276457135307563 70.0
    vertex 120.39777747886721 26.723542864692437 70.0
    vertex 120.5 27.5 70.0
  endloop
endfacet
facet normal -0.0 -0.0 -1.0
  outer loop
    vertex 136.13884612531618 13.913406615569961 5.000000000000004
    vertex 134.77434563311837 7.509350972188289 5.000000000000004
    vertex 134.41047883519897 13.913406615569961 5.000000000000004
  endloop
endfacet
facet normal -0.0 -0.0 -1.0
  outer loop
    vertex 134.41047883519897 13.913406615569961 5.000000000000004
    vertex 133.3916518010246 0.9233619298469147 5.000000000000004
    vertex 131.6632845109074 0.9233619298469147 5.000000000000004
  endloop
endfacet
facet normal -0.0 -0.0 -1.0
  outer loop
    vertex 133.3916518010246 0.9233619298469147 5.000000000000004
    vertex 134.41047883519897 13.913406615569961 5.000000000000004
    vertex 134.31951213571912 5.307956844775842 5.000000000000004
  endloop
endfacet
facet normal -0.0 -0.0 -1.0
  outer loop
    vertex 134.31951213571912 5.307956844775842 5.000000000000004
    vertex 134.41047883519897 13.913406615569961 5.000000000000004
    vertex 134.77434563311837 7.509350972188289 5.000000000000004
  endloop
endfacet
facet normal -0.0 -0.0 -1.0
  outer loop
    vertex 134.31951213571912 5.307956844775842 5.000000000000004
    vertex 134.77434563311837 7.509350972188289 5.000000000000004
    vertex 134.81073231291032 7.472964292396349 5.000000000000004
  endloop
endfacet
facet normal -0.0 -0.0 -1.0
  outer loop
    vertex 134.31951213571912 5.307956844775842 5.000000000000004
    vertex 134.81073231291032 7.472964292396349 5.000000000000004
    vertex 136.9211597408429 7.509350972188289 5.000000000000004
  endloop
endfacet
facet normal -0.0 -0.0 -1.0
  outer loop
    vertex 136.9211597408429 7.509350972188289 5.000000000000004
    vertex 134.81073231291032 7.472964292396349 5.000000000000004
    vertex 142.16084163088246 13.913406615569961 5.000000000000004
  endloop
endfacet
facet normal -0.0 -0.0 -1.0
  outer loop
    vertex 136.9211597408429 7.509350972188289 5.000000000000004
    vertex 142.16084163088246 13.913406615569961 5.000000000000004
    vertex 138.21288687345682 8.564564686154588 5.000000000000004
  endloop
endfacet
facet normal -0.0 -0.0 -1.0
  outer loop
    vertex 138.21288687345682 8.564564686154588 5.000000000000004
    vertex 142.16084163088246 13.913406615569961 5.000000000000004
    vertex 144.47139579767074 13.913406615569961 5.000000000000004
  endloop
endfacet
facet normal -0.0 -0.0 -1.0
  outer loop
    vertex 138.21288687345682 8.564564686154588 5.000000000000004
    vertex 140.46886102055717 0.9233619298469147 5.000000000000004
    vertex 136.9211597408429 7.509350972188289 5.000000000000004
  endloop
endfacet
facet normal -0.0 -0.0 -1.0
  outer loop
    vertex 140.46886102055717 0.9233619298469147 5.000000000000004
    vertex 138.21288687345682 8.564564686154588 5.000000000000004
    vertex 142.3791617096341 0.9233619298469147 5.000000000000004
  endloop
endfacet
facet normal 0.0 0.0 1.0
  outer loop
    vertex 140.46886102055717 0.9233619298469147 6.7411040000000035
    vertex 138.21288687345682 8.564564686154588 6.7411040000000035
    vertex 136.9211597408429 7.509350972188289 6.7411040000000035
  endloop
endfacet
facet normal 0.0 0.0 1.0
  outer loop
    vertex 138.21288687345682 8.564564686154588 6.7411040000000035
    vertex 140.46886102055717 0.9233619298469147 6.7411040000000035
    vertex 142.3791617096341 0.9233619298469147 6.7411040000000035
  endloop
endfacet
facet normal 0.0 0.0 1.0
  outer loop
    vertex 133.3916518010246 0.9233619298469147 6.7411040000000035
    vertex 134.41047883519897 13.913406615569961 6.7411040000000035
    vertex 131.6632845109074 0.9233619298469147 6.7411040000000035
  endloop
endfacet
facet normal 0.0 0.0 1.0
  outer loop
    vertex 134.41047883519897 13.913406615569961 6.7411040000000035
    vertex 133.3916518010246 0.9233619298469147 6.7411040000000035
    vertex 134.31951213571912 5.307956844775842 6.7411040000000035
  endloop
endfacet
facet normal 0.0 0.0 1.0
  outer loop
    vertex 134.41047883519897 13.913406615569961 6.7411040000000035
    vertex 134.31951213571912 5.307956844775842 6.7411040000000035
    vertex 134.77434563311837 7.509350972188289 6.7411040000000035
  endloop
endfacet
facet normal 0.0 0.0 1.0
  outer loop
    vertex 134.77434563311837 7.509350972188289 6.7411040000000035
    vertex 134.31951213571912 5.307956844775842 6.7411040000000035
    vertex 134.81073231291032 7.472964292396349 6.7411040000000035
  endloop
endfacet
facet normal 0.0 0.0 1.0
  outer loop
    vertex 134.81073231291032 7.472964292396349 6.7411040000000035
    vertex 134.31951213571912 5.307956844775842 6.7411040000000035
    vertex 136.9211597408429 7.509350972188289 6.7411040000000035
  endloop
endfacet
facet normal 0.0 0.0 1.0
  outer loop
    vertex 134.81073231291032 7.472964292396349 6.7411040000000035
    vertex 136.9211597408429 7.509350972188289 6.7411040000000035
    vertex 142.16084163088246 13.913406615569961 6.7411040000000035
  endloop
endfacet
facet normal 0.0 0.0 1.0
  outer loop
    vertex 142.16084163088246 13.913406615569961 6.7411040000000035
    vertex 136.9211597408429 7.509350972188289 6.7411040000000035
    vertex 138.21288687345682 8.564564686154588 6.7411040000000035
  endloop
endfacet
facet normal 0.0 0.0 1.0
  outer loop
    vertex 142.16084163088246 13.913406615569961 6.7411040000000035
    vertex 138.21288687345682 8.564564686154588 6.7411040000000035
    vertex 144.47139579767074 13.913406615569961 6.7411040000000035
  endloop
endfacet
facet normal 0.0 0.0 1.0
  outer loop
    vertex 136.13884612531618 13.913406615569961 6.7411040000000035
    vertex 134.41047883519897 13.913406615569961 6.7411040000000035
    vertex 134.77434563311837 7.509350972188289 6.7411040000000035
  endloop
endfacet
facet normal -0.9783603728123296 0.2069081460709549 0.0
  outer loop
    vertex 134.41047883519897 13.913406615569961 6.7411040000000035
    vertex 131.6632845109074 0.9233619298469147 5.000000000000004
    vertex 131.6632845109074 0.9233619298469147 6.7411040000000035
  endloop
endfacet
facet normal -0.9783603728123296 0.2069081460709549 0.0
  outer loop
    vertex 131.6632845109074 0.9233619298469147 5.000000000000004
    vertex 134.41047883519897 13.913406615569961 6.7411040000000035
    vertex 134.41047883519897 13.913406615569961 5.000000000000004
  endloop
endfacet
facet normal 0.0 1.0 0.0
  outer loop
    vertex 134.41047883519897 13.913406615569961 6.7411040000000035
    vertex 136.13884612531618 13.913406615569961 5.000000000000004
    vertex 134.41047883519897 13.913406615569961 5.000000000000004
  endloop
endfacet
facet normal 0.0 1.0 0.0
  outer loop
    vertex 136.13884612531618 13.913406615569961 5.000000000000004
    vertex 134.41047883519897 13.913406615569961 6.7411040000000035
    vertex 136.13884612531618 13.913406615569961 6.7411040000000035
  endloop
endfacet
facet normal 0.9780457205224831 -0.20839042340677916 0.0
  outer loop
    vertex 136.13884612531618 13.913406615569961 5.000000000000004
    vertex 134.77434563311837 7.509350972188289 6.7411040000000035
    vertex 134.77434563311837 7.509350972188289 5.000000000000004
  endloop
endfacet
facet normal 0.9780457205224831 -0.20839042340677916 0.0
  outer loop
    vertex 134.77434563311837 7.509350972188289 6.7411040000000035
    vertex 136.13884612531618 13.913406615569961 5.000000000000004
    vertex 136.13884612531618 13.913406615569961 6.7411040000000035
  endloop
endfacet
facet normal 0.7071067811865416 0.7071067811865535 0.0
  outer loop
    vertex 134.77434563311837 7.509350972188289 6.7411040000000035
    vertex 134.81073231291032 7.472964292396349 5.000000000000004
    vertex 134.77434563311837 7.509350972188289 5.000000000000004
  endloop
endfacet
facet normal 0.7071067811865416 0.7071067811865535 0.0
  outer loop
    vertex 134.81073231291032 7.472964292396349 5.000000000000004
    vertex 134.77434563311837 7.509350972188289 6.7411040000000035
    vertex 134.81073231291032 7.472964292396349 6.7411040000000035
  endloop
endfacet
facet normal -0.659031645248927 0.7521152109620521 0.0
  outer loop
    vertex 134.81073231291032 7.472964292396349 6.7411040000000035
    vertex 142.16084163088246 13.913406615569961 5.000000000000004
    vertex 134.81073231291032 7.472964292396349 5.000000000000004
  endloop
endfacet
facet normal -0.659031645248927 0.7521152109620521 0.0
  outer loop
    vertex 142.16084163088246 13.913406615569961 5.000000000000004
    vertex 134.81073231291032 7.472964292396349 6.7411040000000035
    vertex 142.16084163088246 13.913406615569961 6.7411040000000035
  endloop
endfacet
facet normal 0.0 1.0 0.0
  outer loop
    vertex 142.16084163088246 13.913406615569961 6.7411040000000035
    vertex 144.47139579767074 13.913406615569961 5.000000000000004
    vertex 142.16084163088246 13.913406615569961 5.000000000000004
  endloop
endfacet
facet normal 0.0 1.0 0.0
  outer loop
    vertex 144.47139579767074 13.913406615569961 5.000000000000004
    vertex 142.16084163088246 13.913406615569961 6.7411040000000035
    vertex 144.47139579767074 13.913406615569961 6.7411040000000035
  endloop
endfacet
facet normal 0.6496987697351042 -0.760191757785292 0.0
  outer loop
    vertex 144.47139579767074 13.913406615569961 6.7411040000000035
    vertex 138.21288687345682 8.564564686154588 5.000000000000004
    vertex 144.47139579767074 13.913406615569961 5.000000000000004
  endloop
endfacet
facet normal 0.6496987697351042 -0.760191757785292 0.0
  outer loop
    vertex 138.21288687345682 8.564564686154588 5.000000000000004
    vertex 144.47139579767074 13.913406615569961 6.7411040000000035
    vertex 138.21288687345682 8.564564686154588 6.7411040000000035
  endloop
endfacet
facet normal 0.87797544927288 0.4787056616273559 0.0
  outer loop
    vertex 138.21288687345682 8.564564686154588 5.000000000000004
    vertex 142.3791617096341 0.9233619298469147 6.7411040000000035
    vertex 142.3791617096341 0.9233619298469147 5.000000000000004
  endloop
endfacet
facet normal 0.87797544927288 0.4787056616273559 0.0
  outer loop
    vertex 142.3791617096341 0.9233619298469147 6.7411040000000035
    vertex 138.21288687345682 8.564564686154588 5.000000000000004
    vertex 138.21288687345682 8.564564686154588 6.7411040000000035
  endloop
endfacet
facet normal 0.0 -1.0 0.0
  outer loop
    vertex 142.3791617096341 0.9233619298469147 6.7411040000000035
    vertex 140.46886102055717 0.9233619298469147 5.000000000000004
    vertex 142.3791617096341 0.9233619298469147 5.000000000000004
  endloop
endfacet
facet normal 0.0 -1.0 0.0
  outer loop
    vertex 140.46886102055717 0.9233619298469147 5.000000000000004
    vertex 142.3791617096341 0.9233619298469147 6.7411040000000035
    vertex 140.46886102055717 0.9233619298469147 6.7411040000000035
  endloop
endfacet
facet normal -0.8803929954367354 -0.47424484560818625 0.0
  outer loop
    vertex 136.9211597408429 7.509350972188289 6.7411040000000035
    vertex 140.46886102055717 0.9233619298469147 5.000000000000004
    vertex 140.46886102055717 0.9233619298469147 6.7411040000000035
  endloop
endfacet
facet normal -0.8803929954367354 -0.47424484560818625 0.0
  outer loop
    vertex 140.46886102055717 0.9233619298469147 5.000000000000004
    vertex 136.9211597408429 7.509350972188289 6.7411040000000035
    vertex 136.9211597408429 7.509350972188289 5.000000000000004
  endloop
endfacet
facet normal 0.6459422414661736 -0.7633862853691145 0.0
  outer loop
    vertex 136.9211597408429 7.509350972188289 6.7411040000000035
    vertex 134.31951213571912 5.307956844775842 5.000000000000004
    vertex 136.9211597408429 7.509350972188289 5.000000000000004
  endloop
endfacet
facet normal 0.6459422414661736 -0.7633862853691145 0.0
  outer loop
    vertex 134.31951213571912 5.307956844775842 5.000000000000004
    vertex 136.9211597408429 7.509350972188289 6.7411040000000035
    vertex 134.31951213571912 5.307956844775842 6.7411040000000035
  endloop
endfacet
facet normal 0.9783338934533187 -0.20703331355236199 0.0
  outer loop
    vertex 134.31951213571912 5.307956844775842 5.000000000000004
    vertex 133.3916518010246 0.9233619298469147 6.7411040000000035
    vertex 133.3916518010246 0.9233619298469147 5.000000000000004
  endloop
endfacet
facet normal 0.9783338934533187 -0.20703331355236199 0.0
  outer loop
    vertex 133.3916518010246 0.9233619298469147 6.7411040000000035
    vertex 134.31951213571912 5.307956844775842 5.000000000000004
    vertex 134.31951213571912 5.307956844775842 6.7411040000000035
  endloop
endfacet
facet normal 0.0 -1.0 0.0
  outer loop
    vertex 133.3916518010246 0.9233619298469147 6.7411040000000035
    vertex 131.6632845109074 0.9233619298469147 5.000000000000004
    vertex 133.3916518010246 0.9233619298469147 5.000000000000004
  endloop
endfacet
facet normal 0.0 -1.0 0.0
  outer loop
    vertex 131.6632845109074 0.9233619298469147 5.000000000000004
    vertex 133.3916518010246 0.9233619298469147 6.7411040000000035
    vertex 131.6632845109074 0.9233619298469147 6.7411040000000035
  endloop
endfacet
endsolid HanoiBase
